 <svg version="1.0" xmlns="http://www.w3.org/2000/svg" width="700.000000pt" height="700.000000pt" viewBox="0 0 700.000000 700.000000" preserveAspectRatio="xMidYMid meet">
<g transform="translate(0.000000,700.000000) scale(0.100000,-0.100000)" fill="#000000" stroke="none">
<path d="M3108 6771 c-66 -13 -131 -69 -147 -127 -6 -22 -14 -82 -17 -134 -3
-52 -12 -124 -19 -160 -7 -36 -16 -103 -20 -150 -16 -214 -29 -230 -220 -285
-99 -28 -193 -68 -319 -134 -78 -41 -106 -51 -144 -51 -71 1 -83 9 -335 229
-174 151 -279 196 -374 160 -15 -5 -127 -108 -248 -227 -121 -120 -255 -250
-297 -289 -113 -105 -142 -176 -110 -265 18 -50 46 -89 177 -246 201 -240 205
-246 205 -325 0 -41 -8 -70 -36 -125 -19 -40 -42 -91 -50 -114 -8 -24 -21 -53
-30 -65 -8 -13 -35 -78 -60 -146 -75 -199 -102 -222 -292 -237 -276 -22 -431
-44 -471 -64 -14 -8 -39 -28 -55 -44 -25 -27 -30 -42 -43 -149 -18 -148 -14
-779 6 -828 15 -37 47 -72 83 -91 32 -17 181 -38 410 -58 236 -21 303 -55 323
-165 4 -20 22 -67 41 -105 19 -39 34 -75 34 -82 0 -12 43 -110 101 -230 64
-134 44 -178 -222 -490 -107 -126 -149 -199 -149 -263 0 -49 46 -123 110 -175
33 -28 60 -54 60 -58 0 -16 459 -467 492 -485 19 -10 56 -17 89 -17 67 -1 112
26 262 158 53 47 101 86 106 86 4 0 32 23 61 51 30 29 72 60 95 70 57 26 138
24 201 -5 28 -13 66 -27 85 -31 19 -4 72 -24 119 -45 47 -20 125 -52 174 -71
65 -24 100 -45 129 -74 63 -64 68 -81 82 -284 17 -241 51 -408 91 -452 36 -39
80 -43 529 -40 243 1 446 6 468 12 29 8 45 21 74 64 34 53 36 59 44 177 4 68
13 155 18 193 6 39 11 91 11 117 0 58 34 165 63 202 28 35 133 80 277 120 30
8 90 38 133 65 125 79 246 93 323 38 34 -23 197 -160 316 -265 68 -59 162
-105 218 -106 57 -1 114 37 222 148 160 165 384 392 419 423 56 51 93 128 92
191 -2 57 -36 123 -89 173 -14 13 -40 44 -57 68 -31 45 -94 120 -168 199 -101
108 -103 232 -6 360 14 19 29 53 32 75 4 23 24 85 45 137 21 52 41 111 45 130
19 89 63 128 163 141 37 5 117 15 177 24 61 8 135 15 165 15 69 0 236 35 268
56 13 9 34 37 45 62 21 45 22 62 25 455 4 463 0 499 -53 545 -59 52 -122 68
-325 81 -211 14 -258 22 -337 53 -72 29 -97 69 -164 262 -27 76 -55 151 -63
165 -63 115 -96 187 -96 212 0 59 40 138 108 213 115 126 246 292 274 348 32
62 35 114 11 166 -19 40 -549 573 -618 622 -53 37 -112 52 -153 41 -38 -11
-152 -79 -152 -90 0 -5 -25 -28 -56 -52 -31 -24 -96 -79 -143 -122 -95 -85
-167 -127 -219 -127 -55 0 -152 29 -217 65 -66 36 -200 90 -310 123 -38 12
-80 28 -93 37 -55 39 -76 133 -102 457 -13 166 -36 253 -77 299 -60 66 -82 69
-522 68 -212 -1 -402 -5 -423 -8z m731 -2260 c92 -28 141 -52 262 -126 17 -11
51 -31 74 -45 87 -52 272 -264 305 -350 8 -19 26 -57 41 -85 15 -27 42 -97 60
-155 34 -105 34 -106 34 -305 0 -191 -1 -204 -28 -290 -81 -260 -284 -542
-450 -627 -23 -11 -57 -31 -77 -44 -57 -37 -185 -83 -309 -111 -164 -38 -326
-38 -466 0 -207 55 -342 114 -436 193 -22 18 -44 34 -48 34 -19 0 -180 194
-221 266 -101 176 -119 215 -126 266 -3 29 -17 103 -31 163 -28 126 -27 161
13 370 18 95 35 151 64 212 22 45 40 85 40 87 0 10 88 148 128 200 23 30 66
74 95 96 28 22 75 59 102 81 67 54 149 102 219 128 32 12 72 29 89 37 57 30
182 43 377 40 175 -3 191 -5 289 -35z"></path>
</g>
</svg>