 <svg version="1.0" xmlns="http://www.w3.org/2000/svg" width="700.000000pt" height="693.000000pt" viewBox="0 0 700.000000 693.000000" preserveAspectRatio="xMidYMid meet">
<g transform="translate(0.000000,693.000000) scale(0.100000,-0.100000)" fill="#000000" stroke="none">
<path d="M270 5910 c-26 -26 -27 -116 -1 -265 18 -105 61 -218 111 -295 86
-132 127 -182 238 -295 174 -179 278 -275 480 -444 211 -176 222 -188 222
-247 0 -43 -2 -46 -112 -152 -61 -59 -136 -129 -166 -157 -204 -187 -372 -373
-417 -462 -61 -120 -58 -201 10 -281 37 -44 69 -59 178 -84 80 -18 123 -21
332 -20 304 1 311 -2 348 -128 23 -79 92 -216 140 -280 77 -101 189 -214 281
-282 50 -37 109 -82 131 -101 22 -19 51 -40 64 -47 30 -15 173 -130 184 -146
4 -7 29 -26 56 -42 95 -59 145 -154 144 -277 0 -76 -30 -222 -54 -268 -15 -27
-35 -101 -75 -282 -32 -144 -36 -176 -37 -320 -2 -169 0 -180 58 -345 30 -87
55 -122 144 -208 74 -72 151 -121 232 -147 30 -10 74 -27 99 -37 79 -34 314
-50 660 -45 364 5 490 19 644 71 108 36 130 49 239 133 124 96 202 241 223
418 31 259 11 396 -116 790 -41 128 -53 200 -46 275 9 101 22 131 79 190 54
56 73 70 273 209 130 91 142 100 259 199 154 133 205 184 237 241 17 31 44 74
58 96 31 46 95 195 105 241 8 41 68 100 109 108 17 3 86 2 151 -4 332 -27 519
5 602 104 24 29 25 35 20 111 -4 44 -13 102 -22 129 -16 52 -79 171 -96 181
-5 4 -30 37 -54 73 -52 78 -90 112 -385 351 -61 48 -117 111 -130 145 -13 35
-13 102 0 126 6 10 45 47 88 82 90 73 250 218 407 368 33 31 69 63 81 71 11 8
48 46 81 84 33 39 71 76 85 84 15 7 38 35 53 62 14 27 31 51 36 55 17 10 109
155 109 171 0 8 14 47 32 86 28 63 32 84 33 167 1 52 6 112 10 133 5 25 3 42
-5 52 -15 18 -53 20 -81 4 -26 -13 -165 -125 -249 -200 -94 -84 -257 -198
-360 -252 -180 -95 -368 -187 -383 -187 -10 0 -53 -18 -94 -40 -42 -22 -83
-40 -91 -40 -9 0 -47 -16 -86 -35 -137 -67 -343 -73 -556 -15 -276 75 -437
111 -605 135 -99 14 -209 31 -245 36 -175 29 -899 17 -1055 -17 -38 -8 -131
-24 -207 -35 -75 -10 -153 -26 -174 -35 -20 -8 -81 -24 -134 -34 -53 -10 -115
-26 -136 -35 -53 -22 -185 -45 -262 -45 -152 0 -357 39 -502 95 -307 118 -636
318 -891 540 -50 44 -102 87 -115 96 -14 9 -35 30 -48 47 -24 34 -93 92 -107
92 -5 0 -18 -9 -29 -20z m2407 -1945 c79 -6 103 -14 178 -61 125 -79 223 -222
245 -359 25 -150 7 -323 -41 -401 -23 -37 -40 -45 -180 -78 -166 -40 -276 -35
-421 20 -97 37 -191 133 -235 241 -50 120 -66 218 -60 348 8 167 24 200 120
246 70 33 212 59 287 53 19 -2 67 -6 107 -9z m1913 -5 c78 -13 134 -33 177
-66 41 -31 63 -123 63 -267 0 -179 -32 -283 -122 -402 -57 -75 -131 -126 -231
-159 -111 -37 -302 -31 -447 15 -118 37 -148 93 -152 279 -3 142 15 264 45
304 13 17 33 49 45 71 21 42 150 173 192 195 67 36 290 52 430 30z m-1516
-2601 c14 -11 34 -35 43 -52 9 -18 32 -51 52 -73 20 -23 56 -80 80 -128 l45
-87 -11 -65 c-23 -131 -100 -193 -252 -202 -83 -4 -89 -3 -162 32 -82 38 -98
55 -123 129 -15 44 -15 54 0 116 21 94 69 167 205 312 43 45 81 51 123 18z
m953 -31 c30 -29 63 -69 73 -89 10 -19 26 -41 35 -49 28 -23 83 -134 90 -181
11 -74 -9 -126 -70 -186 -69 -68 -108 -78 -224 -63 -133 17 -154 25 -203 78
-59 63 -73 106 -59 174 19 86 45 131 146 252 119 141 127 143 212 64z"></path>
</g>
</svg>