 <svg version="1.0" xmlns="http://www.w3.org/2000/svg" width="700.000000pt" height="700.000000pt" viewBox="0 0 700.000000 700.000000" preserveAspectRatio="xMidYMid meet">
<g transform="translate(0.000000,700.000000) scale(0.100000,-0.100000)" fill="#000000" stroke="none">
<path d="M253 6146 c-17 -8 -34 -24 -38 -36 -8 -25 1 -217 16 -360 10 -88 40
-256 74 -410 7 -36 24 -117 35 -180 21 -108 58 -241 101 -355 10 -27 25 -80
34 -118 8 -37 26 -89 39 -115 13 -26 47 -111 75 -190 28 -79 63 -166 76 -192
14 -27 25 -54 25 -61 0 -6 41 -100 90 -210 103 -225 117 -280 101 -384 -17
-117 -23 -342 -12 -491 10 -146 29 -217 59 -229 9 -4 83 -13 164 -21 157 -15
332 -55 523 -119 119 -39 350 -147 420 -195 24 -17 47 -30 51 -30 10 0 105
-73 194 -149 173 -148 387 -374 440 -464 14 -24 38 -65 54 -93 16 -27 42 -68
58 -91 16 -23 35 -59 42 -80 7 -21 32 -75 54 -119 23 -45 50 -119 62 -165 12
-46 28 -99 37 -119 8 -19 23 -89 34 -155 13 -79 28 -137 45 -170 14 -27 36
-70 49 -95 19 -38 41 -57 131 -115 l109 -70 90 -3 c78 -3 102 0 181 26 108 34
168 79 224 165 21 31 43 81 50 110 6 28 20 79 31 112 10 33 23 92 29 130 6 39
24 112 41 163 32 96 234 510 268 546 10 12 24 32 31 46 22 42 79 106 235 264
83 84 177 172 210 196 33 23 83 60 110 80 75 57 289 177 384 217 202 84 429
146 616 168 202 23 199 22 230 55 21 22 31 46 38 88 16 105 20 421 7 567 -16
173 -11 201 68 366 115 241 130 274 142 319 6 25 22 63 35 86 13 22 32 72 41
110 10 38 37 112 61 164 59 126 134 382 207 705 39 167 86 456 86 521 0 23 7
78 15 121 21 110 20 206 -2 225 -21 18 -77 37 -113 39 -77 4 -494 -44 -615
-71 -49 -11 -121 -26 -160 -34 -271 -54 -784 -220 -1055 -341 -58 -26 -120
-51 -139 -55 -41 -10 -94 -3 -141 20 -150 72 -548 171 -770 191 -225 20 -492
23 -592 6 -51 -9 -123 -19 -159 -22 -63 -6 -95 -13 -304 -69 -91 -25 -164 -52
-289 -108 -59 -26 -76 -30 -127 -25 -34 3 -80 16 -107 30 -26 13 -69 29 -96
36 -27 7 -66 21 -87 32 -74 37 -330 131 -451 164 -48 14 -100 31 -115 39 -16
7 -54 19 -87 26 -32 6 -83 20 -113 31 -31 10 -114 30 -187 44 -72 14 -145 30
-162 36 -45 14 -425 62 -589 73 -57 4 -89 2 -112 -8z m5727 -826 c40 -21 41
-42 10 -164 -16 -64 -33 -124 -39 -134 -5 -9 -16 -45 -25 -78 -18 -71 -79
-205 -100 -223 -24 -20 -48 -5 -111 75 -33 42 -99 120 -147 174 -124 141 -129
153 -75 212 24 26 49 41 88 51 30 8 119 33 199 55 160 45 173 47 200 32z
m-4795 -15 c101 -20 314 -87 385 -123 48 -23 55 -31 58 -59 3 -28 -7 -43 -85
-125 -85 -90 -134 -152 -179 -225 -24 -40 -94 -113 -107 -113 -5 0 -22 14 -37
30 -36 39 -92 204 -179 528 -13 46 -3 72 33 88 17 7 31 13 31 14 0 0 36 -7 80
-15z"></path>
</g>
</svg>