 <svg version="1.0" xmlns="http://www.w3.org/2000/svg" width="48" height="48" viewBox="0 0 700.000000 848.000000" preserveAspectRatio="xMidYMid meet">
<g transform="translate(0.000000,848.000000) scale(0.100000,-0.100000)" fill="#ED3501" stroke="none">
<path d="M3100 7320 c-195 -22 -377 -57 -459 -90 -27 -10 -77 -26 -112 -35
-63 -16 -356 -155 -460 -218 -31 -18 -84 -57 -118 -85 -34 -29 -66 -52 -70
-52 -4 0 -78 -69 -163 -152 -160 -158 -264 -281 -338 -403 -23 -38 -50 -79
-60 -90 -10 -11 -21 -31 -25 -45 -4 -14 -37 -88 -73 -165 -36 -77 -75 -176
-88 -220 -12 -44 -27 -93 -34 -110 -17 -43 -28 -107 -50 -294 -19 -158 -19
-215 -15 -1136 3 -585 9 -1001 15 -1047 11 -82 35 -157 69 -223 12 -21 21 -47
21 -56 0 -19 63 -99 155 -197 70 -75 142 -125 277 -193 162 -81 163 -81 590
-88 465 -7 421 13 428 -199 7 -171 19 -207 73 -217 17 -3 408 -5 867 -3 898 3
875 2 899 55 6 13 11 74 11 136 0 62 5 130 10 151 17 74 -3 70 423 77 l382 5
110 44 c138 55 274 135 343 203 71 69 142 163 161 212 8 22 23 52 33 67 10 14
28 64 39 110 11 46 27 103 35 127 12 37 15 199 15 1075 l0 1031 -30 175 c-31
177 -88 374 -134 466 -14 27 -28 63 -31 80 -4 17 -23 55 -41 85 -19 29 -35 57
-35 62 0 18 -106 186 -173 275 -76 100 -315 347 -387 400 -19 14 -48 38 -65
52 -16 15 -52 40 -80 55 -316 177 -464 249 -561 269 -38 8 -89 22 -114 31 -25
9 -137 32 -249 51 l-204 34 -361 -1 c-198 -1 -390 -5 -426 -9z m-415 -2757
c33 -17 77 -36 97 -42 20 -7 65 -35 100 -62 60 -47 77 -68 175 -209 102 -148
108 -429 13 -626 -49 -102 -128 -201 -185 -235 -25 -14 -53 -33 -62 -41 -46
-41 -160 -87 -238 -98 -103 -14 -281 3 -386 36 -88 28 -186 93 -228 150 -15
22 -36 46 -45 54 -34 27 -85 119 -116 206 -33 95 -56 259 -45 331 10 68 64
204 94 239 16 18 41 55 57 84 23 43 44 62 124 115 52 35 119 70 149 79 29 9
60 21 67 27 23 19 112 28 244 25 117 -2 129 -4 185 -33z"></path>
<path d="M2710 1821 c-87 -7 -96 -11 -104 -49 -11 -47 30 -240 58 -281 15 -20
26 -42 26 -47 0 -27 91 -157 154 -220 134 -134 254 -201 446 -251 125 -32 143
-35 250 -31 94 4 140 12 250 42 74 21 142 44 150 51 8 7 53 38 98 69 169 112
295 285 363 499 44 140 46 156 20 188 -17 22 -27 23 -182 30 -193 9 -1420 8
-1529 0z"></path>
</g>
</svg>