 <svg version="1.0" xmlns="http://www.w3.org/2000/svg" width="700.000000pt" height="700.000000pt" viewBox="0 0 700.000000 700.000000" preserveAspectRatio="xMidYMid meet">
<g transform="translate(0.000000,700.000000) scale(0.100000,-0.100000)" fill="#000000" stroke="none">
<path d="M3269 6236 c-64 -7 -140 -22 -170 -33 -30 -12 -74 -28 -99 -36 -95
-32 -204 -77 -239 -100 -163 -107 -204 -138 -305 -230 -103 -95 -257 -292
-361 -462 -22 -36 -63 -98 -91 -138 -28 -40 -57 -83 -64 -97 -7 -14 -27 -47
-45 -75 -18 -27 -51 -81 -75 -120 -24 -38 -69 -110 -100 -160 -31 -49 -76
-124 -100 -165 -24 -41 -53 -91 -65 -110 -51 -81 -105 -177 -115 -204 -6 -16
-19 -40 -29 -55 -10 -14 -30 -53 -44 -86 -14 -33 -40 -85 -59 -115 -18 -31
-75 -141 -127 -245 -51 -105 -136 -274 -187 -377 -52 -103 -94 -195 -94 -203
0 -9 -13 -42 -29 -73 -17 -31 -39 -79 -49 -107 -11 -27 -40 -95 -64 -150 -25
-55 -55 -131 -67 -170 -12 -38 -29 -80 -37 -93 -9 -13 -26 -53 -39 -90 -13
-37 -42 -119 -65 -182 -23 -63 -53 -150 -66 -192 -13 -43 -30 -90 -37 -105 -8
-15 -18 -44 -22 -63 -3 -19 -22 -82 -40 -140 -78 -245 -135 -508 -135 -620 0
-87 33 -221 72 -289 40 -70 150 -186 202 -213 98 -50 -85 -47 2994 -48 1712
-1 2889 3 2908 8 66 20 194 103 245 159 87 94 134 237 133 398 0 87 -8 129
-57 325 -78 307 -113 433 -125 456 -6 11 -22 58 -35 104 -14 47 -46 132 -72
190 -25 58 -57 143 -70 190 -12 47 -39 123 -60 170 -20 47 -53 123 -72 170
-19 47 -38 90 -43 95 -4 6 -17 37 -29 70 -13 33 -33 80 -46 105 -13 25 -40 85
-60 135 -20 49 -50 115 -66 145 -16 30 -53 107 -84 170 -30 63 -61 126 -69
140 -8 14 -26 48 -39 75 -13 28 -46 93 -73 145 -27 52 -57 111 -65 130 -30 64
-123 235 -164 300 -80 126 -130 210 -189 315 -90 158 -188 322 -256 426 -31
46 -68 104 -82 129 -15 25 -47 69 -72 99 -24 30 -48 66 -51 80 -4 14 -20 44
-36 66 -17 22 -61 83 -100 135 -76 104 -261 291 -330 336 -24 16 -58 40 -74
54 -67 56 -277 148 -436 191 -152 40 -156 40 -359 44 -123 2 -251 -1 -321 -9z
m916 -340 c42 -18 93 -61 127 -110 27 -37 59 -193 49 -238 -9 -40 -45 -112
-76 -153 -13 -17 -54 -46 -91 -65 -63 -33 -74 -35 -163 -35 -115 0 -155 17
-241 104 -69 69 -84 115 -78 234 3 58 11 96 26 127 27 56 116 131 174 147 59
17 222 11 273 -11z m-1209 -907 c60 -30 73 -42 109 -99 38 -62 40 -69 43 -161
3 -87 1 -101 -21 -145 -34 -67 -92 -123 -160 -158 -51 -26 -67 -29 -147 -28
-112 1 -157 20 -223 91 -63 67 -89 128 -95 218 -4 69 -3 77 34 149 32 63 48
82 92 111 80 54 115 64 213 60 75 -3 96 -8 155 -38z m1914 -524 c59 -30 115
-84 154 -149 27 -44 28 -53 24 -134 -3 -71 -10 -100 -35 -153 -37 -79 -58
-100 -143 -142 -58 -29 -74 -32 -155 -32 -86 0 -93 2 -143 34 -62 40 -128 111
-153 166 -26 56 -25 158 2 230 13 35 41 77 75 114 64 70 116 89 242 90 69 1
91 -3 132 -24z m-2845 -313 c109 -52 137 -85 181 -216 29 -85 29 -97 4 -179
-26 -84 -98 -167 -168 -194 -72 -28 -243 -26 -297 4 -64 35 -104 78 -138 151
-44 96 -45 180 0 274 38 81 68 111 148 148 84 39 83 38 150 39 46 1 74 -6 120
-27z"></path>
</g>
</svg>