 <svg version="1.0" xmlns="http://www.w3.org/2000/svg" width="700.000000pt" height="708.000000pt" viewBox="0 0 700.000000 708.000000" preserveAspectRatio="xMidYMid meet">
<g transform="translate(0.000000,708.000000) scale(0.100000,-0.100000)" fill="#000000" stroke="none">
<path d="M701 6420 c-18 -4 -42 -17 -53 -28 -20 -20 -20 -37 -20 -2967 1
-2649 2 -2949 16 -2970 9 -13 33 -29 53 -34 43 -12 5810 -14 5852 -2 13 3 34
19 45 34 l21 28 0 2939 0 2939 -24 25 c-14 14 -41 30 -60 36 -44 12 -5779 12
-5830 0z"></path>
</g>
</svg>