 <svg version="1.0" xmlns="http://www.w3.org/2000/svg" width="700.000000pt" height="774.000000pt" viewBox="0 0 700.000000 774.000000" preserveAspectRatio="xMidYMid meet">
<g transform="translate(0.000000,774.000000) scale(0.100000,-0.100000)" fill="#000000" stroke="none">
<path d="M3371 7369 c-33 -13 -156 -107 -217 -166 -79 -77 -78 -100 9 -230 21
-31 40 -76 47 -110 7 -32 24 -94 37 -138 19 -58 25 -101 25 -155 -1 -41 3
-102 8 -135 16 -103 -15 -165 -84 -165 -55 0 -236 106 -376 219 -25 20 -58 45
-75 56 -16 10 -55 39 -85 65 -70 60 -90 70 -135 70 -82 0 -139 -59 -170 -175
-21 -82 -19 -127 10 -212 44 -126 13 -143 -210 -114 -62 8 -173 11 -285 9
l-185 -3 -134 -48 c-74 -26 -152 -58 -175 -71 -96 -58 -222 -154 -243 -185
-28 -41 -29 -91 -4 -122 18 -23 27 -24 158 -29 140 -6 183 -16 183 -46 0 -31
-31 -74 -77 -105 -25 -18 -54 -40 -63 -49 -9 -9 -38 -31 -63 -49 -26 -18 -47
-36 -47 -40 0 -5 -19 -31 -43 -57 -65 -74 -183 -298 -217 -412 -75 -257 -73
-243 -73 -537 -1 -165 4 -302 12 -353 15 -101 74 -360 96 -422 9 -25 30 -99
46 -165 31 -123 63 -208 124 -330 19 -38 42 -90 50 -114 8 -24 19 -49 24 -55
5 -6 37 -65 71 -131 72 -139 209 -358 330 -525 19 -27 59 -83 88 -125 30 -42
75 -101 100 -130 26 -29 85 -99 132 -155 145 -176 271 -319 376 -429 56 -58
120 -128 142 -156 22 -27 78 -86 124 -130 359 -338 370 -347 478 -411 69 -40
227 -84 306 -84 117 0 299 69 419 160 83 62 355 311 355 323 0 5 48 58 108
117 59 59 145 151 192 205 47 53 114 129 149 168 295 334 381 436 440 526 13
20 41 54 61 77 20 22 56 74 80 115 24 41 69 112 100 159 31 47 72 110 91 140
67 107 232 460 269 575 12 39 37 104 56 146 18 41 40 107 48 145 8 38 24 96
36 129 61 174 73 257 96 681 7 124 -8 304 -36 434 -27 125 -104 335 -143 394
-19 28 -41 63 -49 79 -23 45 -227 256 -268 277 -48 25 -70 55 -70 97 0 51 27
63 140 63 152 0 200 21 200 88 0 33 -8 45 -77 110 -42 41 -99 85 -127 99 -27
14 -66 36 -86 49 -52 34 -192 82 -289 99 -115 20 -417 20 -531 0 -47 -8 -97
-15 -112 -15 -60 0 -73 56 -38 158 28 81 16 201 -27 270 -63 102 -132 117
-228 50 -33 -23 -64 -47 -70 -53 -19 -21 -130 -111 -160 -129 -16 -11 -55 -40
-85 -66 -70 -60 -133 -94 -160 -85 -27 9 -53 61 -47 95 12 58 -11 454 -31 545
-11 50 -24 116 -30 147 -13 68 -78 236 -101 260 -21 22 -60 30 -90 17z m395
-2909 c74 -32 119 -116 119 -220 0 -52 -5 -74 -27 -110 -56 -96 -127 -132
-238 -123 -84 7 -107 20 -165 95 -61 78 -73 117 -56 185 26 103 67 152 152
183 63 24 148 20 215 -10z m-1870 -220 c77 -45 124 -132 124 -230 -1 -108
-132 -230 -249 -230 -30 0 -109 29 -148 53 -20 13 -43 43 -58 72 -55 114 -39
223 43 295 68 61 95 71 178 67 50 -3 82 -10 110 -27z m3249 6 c75 -36 122 -90
135 -156 11 -56 6 -119 -12 -155 -20 -39 -80 -105 -108 -120 -45 -23 -120 -36
-167 -29 -57 8 -155 88 -177 145 -30 75 -15 195 32 257 60 79 197 106 297 58z
m-2193 -268 c101 -55 137 -127 117 -234 -14 -77 -29 -103 -84 -152 -127 -112
-342 -59 -384 93 -15 56 -14 149 3 188 18 42 104 125 142 137 55 18 139 5 206
-32z m1402 -242 c43 -18 102 -78 122 -123 18 -41 18 -144 0 -186 -7 -18 -35
-56 -62 -85 -54 -59 -87 -71 -185 -72 -47 0 -65 6 -120 39 -84 51 -112 102
-118 214 -3 71 -1 81 23 115 32 46 85 89 134 108 45 17 153 12 206 -10z
m-1942 -740 c98 -43 143 -118 142 -236 -1 -87 -27 -132 -115 -198 -25 -19
-127 -33 -184 -26 -44 6 -57 14 -106 63 -68 67 -84 113 -74 208 6 57 12 69 56
123 39 46 60 62 97 74 71 21 123 19 184 -8z m979 -2 c118 -38 182 -191 133
-314 -34 -86 -174 -161 -275 -147 -47 6 -121 57 -159 108 -35 49 -56 152 -40
207 15 56 96 138 151 152 24 6 49 13 54 15 16 7 85 -4 136 -21z m936 -249 c60
-18 126 -83 142 -141 20 -67 24 -121 13 -153 -17 -48 -93 -139 -131 -157 -62
-29 -208 -14 -273 29 -63 42 -104 174 -80 256 14 45 105 149 146 167 41 18
121 17 183 -1z m-824 -778 c24 -14 65 -51 90 -83 44 -52 47 -60 47 -113 0 -41
-8 -72 -29 -117 -25 -53 -36 -65 -98 -102 -59 -36 -77 -42 -125 -42 -55 0
-127 28 -171 68 -26 23 -87 151 -87 182 0 15 16 59 35 97 37 74 79 111 146
132 55 17 143 6 192 -22z"></path>
</g>
</svg>