 <svg version="1.0" xmlns="http://www.w3.org/2000/svg" width="700.000000pt" height="700.000000pt" viewBox="0 0 700.000000 700.000000" preserveAspectRatio="xMidYMid meet">
<g transform="translate(0.000000,700.000000) scale(0.100000,-0.100000)" fill="#000000" stroke="none">
<path d="M452 6059 c-87 -11 -141 -43 -169 -99 -50 -97 -13 -216 82 -268 25
-14 64 -17 233 -18 218 -1 240 -5 262 -53 16 -35 42 -319 65 -726 16 -274 51
-779 60 -855 3 -25 7 -92 10 -150 3 -58 9 -166 14 -240 6 -74 24 -337 40 -585
17 -247 35 -513 41 -590 6 -77 15 -216 20 -310 6 -93 12 -186 15 -205 3 -19 9
-116 15 -215 6 -99 21 -281 34 -403 22 -212 25 -226 52 -265 47 -66 125 -123
185 -136 66 -14 4158 -16 4207 -2 17 5 59 25 92 43 54 29 65 41 102 108 41 74
41 77 54 235 7 88 18 241 24 340 5 99 15 225 20 280 5 55 14 190 20 300 6 110
15 259 21 330 20 267 29 401 39 573 11 203 34 523 55 762 8 91 19 260 25 375
6 116 18 280 26 365 7 85 19 245 24 354 16 293 37 556 50 599 18 60 32 64 261
74 l205 8 42 34 c56 43 76 83 76 151 1 71 -26 126 -82 165 l-44 30 -3056 1
c-1682 1 -3085 -2 -3120 -7z"></path>
</g>
</svg>